<svg xmlns="http://www.w3.org/2000/svg" xmlns:xlink="http://www.w3.org/1999/xlink" width="1080" zoomAndPan="magnify" viewBox="0 0 810 809.999993" height="1080" preserveAspectRatio="xMidYMid meet" version="1.0"><defs><clipPath id="id1"><path d="M 110 27 L 697 27 L 697 795 L 110 795 Z M 110 27 " clip-rule="nonzero"/></clipPath><clipPath id="id2"><path d="M 287.199219 -96.972656 L 903.859375 265.890625 L 525.019531 909.703125 L -91.640625 546.839844 Z M 287.199219 -96.972656 " clip-rule="nonzero"/></clipPath><clipPath id="id3"><path d="M 287.199219 -96.972656 L 903.859375 265.890625 L 525.019531 909.703125 L -91.640625 546.839844 Z M 287.199219 -96.972656 " clip-rule="nonzero"/></clipPath><clipPath id="id4"><path d="M 113 30 L 694 30 L 694 792 L 113 792 Z M 113 30 " clip-rule="nonzero"/></clipPath><clipPath id="id5"><path d="M 287.199219 -96.972656 L 903.859375 265.890625 L 525.019531 909.703125 L -91.640625 546.839844 Z M 287.199219 -96.972656 " clip-rule="nonzero"/></clipPath><clipPath id="id6"><path d="M 287.199219 -96.972656 L 903.859375 265.890625 L 525.019531 909.703125 L -91.640625 546.839844 Z M 287.199219 -96.972656 " clip-rule="nonzero"/></clipPath><clipPath id="id7"><path d="M 110 27 L 697 27 L 697 795 L 110 795 Z M 110 27 " clip-rule="nonzero"/></clipPath><clipPath id="id8"><path d="M 287.199219 -96.972656 L 903.859375 265.890625 L 525.019531 909.703125 L -91.640625 546.839844 Z M 287.199219 -96.972656 " clip-rule="nonzero"/></clipPath><clipPath id="id9"><path d="M 287.199219 -96.972656 L 903.859375 265.890625 L 525.019531 909.703125 L -91.640625 546.839844 Z M 287.199219 -96.972656 " clip-rule="nonzero"/></clipPath></defs><g clip-path="url(#id1)"><g clip-path="url(#id2)"><g clip-path="url(#id3)"><path fill="rgb(94.898987%, 78.819275%, 88.238525%)" d="M 653.152344 653.675781 L 385.957031 786.652344 C 362.195312 798.476562 334.332031 797.492188 311.429688 784.015625 C 298.390625 776.347656 287.921875 765.097656 281.152344 751.488281 C 271.855469 732.792969 270.394531 711.589844 277.042969 691.789062 C 283.6875 671.988281 297.644531 655.960938 316.34375 646.65625 L 332.511719 638.609375 L 290.457031 635.148438 C 255.628906 632.277344 226.703125 606.304688 220.121094 571.980469 C 213.535156 537.652344 230.792969 502.800781 262.089844 487.226562 L 278.226562 479.195312 L 236.210938 475.742188 C 201.378906 472.875 172.453125 446.898438 165.871094 412.570312 C 159.285156 378.242188 176.542969 343.390625 207.839844 327.816406 L 223.96875 319.792969 L 181.960938 316.335938 C 147.128906 313.472656 118.203125 287.496094 111.621094 253.164062 C 105.035156 218.835938 122.292969 183.984375 153.589844 168.414062 L 420.789062 35.460938 C 459.390625 16.253906 506.402344 32.03125 525.59375 70.628906 C 534.890625 89.324219 536.347656 110.527344 529.699219 130.328125 C 523.050781 150.128906 509.09375 166.15625 490.394531 175.460938 L 474.285156 183.476562 L 516.269531 186.929688 C 551.101562 189.789062 580.027344 215.769531 586.613281 250.097656 C 593.195312 284.425781 575.9375 319.277344 544.644531 334.847656 L 528.507812 342.878906 L 570.523438 346.335938 C 605.355469 349.199219 634.28125 375.175781 640.863281 409.503906 C 647.449219 443.832031 630.191406 478.683594 598.894531 494.257812 L 582.746094 502.292969 L 624.777344 505.75 C 659.609375 508.617188 688.535156 534.59375 695.117188 568.921875 C 701.699219 603.25 684.445312 638.101562 653.152344 653.675781 Z M 653.152344 653.675781 " fill-opacity="1" fill-rule="nonzero"/></g></g></g><g clip-path="url(#id4)"><g clip-path="url(#id5)"><g clip-path="url(#id6)"><path fill="rgb(94.898987%, 78.819275%, 88.238525%)" d="M 312.914062 781.488281 C 312.917969 781.492188 312.914062 781.488281 312.910156 781.484375 C 300.367188 774.105469 290.292969 763.28125 283.78125 750.183594 C 274.832031 732.1875 273.425781 711.78125 279.824219 692.722656 C 286.222656 673.664062 299.65625 658.238281 317.648438 649.28125 L 338.523438 638.890625 C 339.113281 638.597656 339.433594 637.949219 339.3125 637.300781 C 339.230469 636.878906 338.972656 636.523438 338.617188 636.316406 C 338.429688 636.207031 338.21875 636.136719 337.992188 636.117188 L 290.699219 632.226562 C 257.175781 629.464844 229.335938 604.460938 223 571.425781 C 216.660156 538.386719 233.273438 504.839844 263.394531 489.851562 L 284.238281 479.476562 C 284.828125 479.183594 285.152344 478.535156 285.027344 477.886719 C 284.902344 477.242188 284.363281 476.757812 283.707031 476.703125 L 236.449219 472.816406 C 202.925781 470.054688 175.085938 445.054688 168.746094 412.011719 C 162.410156 378.972656 179.019531 345.429688 209.140625 330.441406 L 229.980469 320.070312 C 230.570312 319.777344 230.890625 319.125 230.765625 318.480469 C 230.644531 317.835938 230.101562 317.351562 229.449219 317.296875 L 182.203125 313.410156 C 148.675781 310.652344 120.835938 285.652344 114.5 252.605469 C 108.164062 219.566406 124.773438 186.023438 154.898438 171.035156 L 422.097656 38.085938 C 459.246094 19.601562 504.5 34.785156 522.96875 71.9375 C 531.914062 89.929688 533.320312 110.335938 526.921875 129.394531 C 520.519531 148.453125 507.085938 163.878906 489.089844 172.835938 L 468.273438 183.195312 C 467.683594 183.484375 467.359375 184.136719 467.484375 184.785156 C 467.609375 185.429688 468.148438 185.914062 468.804688 185.96875 L 516.03125 189.851562 C 549.554688 192.609375 577.394531 217.609375 583.734375 250.652344 C 590.070312 283.695312 573.460938 317.238281 543.339844 332.226562 L 522.492188 342.601562 C 521.90625 342.894531 521.582031 343.542969 521.707031 344.191406 C 521.832031 344.835938 522.367188 345.324219 523.027344 345.375 L 570.28125 349.261719 C 603.808594 352.019531 631.644531 377.023438 637.984375 410.0625 C 644.320312 443.101562 627.710938 476.648438 597.589844 491.636719 L 576.730469 502.015625 C 576.144531 502.308594 575.820312 502.960938 575.945312 503.605469 C 576.066406 504.253906 576.609375 504.734375 577.265625 504.789062 L 624.539062 508.679688 C 658.0625 511.441406 685.898438 536.441406 692.238281 569.480469 C 698.574219 602.519531 681.964844 636.0625 651.847656 651.054688 L 384.652344 784.03125 C 361.78125 795.410156 334.960938 794.460938 312.914062 781.488281 Z M 312.914062 781.488281 " fill-opacity="1" fill-rule="nonzero"/></g></g></g><g clip-path="url(#id7)"><g clip-path="url(#id8)"><g clip-path="url(#id9)"><path fill="rgb(94.898987%, 78.819275%, 88.238525%)" d="M 695.117188 568.921875 C 688.535156 534.597656 659.609375 508.621094 624.78125 505.753906 L 582.746094 502.292969 L 598.894531 494.257812 C 630.191406 478.683594 647.449219 443.832031 640.863281 409.503906 C 634.28125 375.175781 605.355469 349.199219 570.523438 346.335938 L 528.507812 342.878906 L 544.644531 334.851562 C 575.9375 319.277344 593.199219 284.425781 586.613281 250.097656 C 580.027344 215.769531 551.101562 189.792969 516.269531 186.929688 L 474.285156 183.476562 L 490.394531 175.460938 C 509.09375 166.15625 523.050781 150.128906 529.699219 130.328125 C 536.347656 110.527344 534.890625 89.324219 525.59375 70.628906 C 506.402344 32.03125 459.390625 16.253906 420.792969 35.457031 L 153.589844 168.414062 C 122.292969 183.984375 105.035156 218.835938 111.621094 253.164062 C 118.203125 287.496094 147.128906 313.472656 181.960938 316.335938 L 223.964844 319.789062 L 207.835938 327.816406 C 176.542969 343.390625 159.285156 378.242188 165.867188 412.570312 C 172.453125 446.898438 201.378906 472.875 236.210938 475.738281 L 278.226562 479.195312 L 262.085938 487.226562 C 230.792969 502.800781 213.535156 537.652344 220.117188 571.976562 C 226.703125 606.300781 255.628906 632.277344 290.457031 635.148438 L 332.511719 638.609375 L 316.34375 646.65625 C 297.644531 655.960938 283.6875 671.988281 277.042969 691.789062 C 270.394531 711.589844 271.855469 732.792969 281.152344 751.488281 C 287.921875 765.097656 298.390625 776.347656 311.425781 784.015625 C 334.332031 797.492188 362.191406 798.476562 385.957031 786.652344 L 653.148438 653.671875 C 684.445312 638.101562 701.699219 603.25 695.117188 568.921875 Z M 312.910156 781.484375 C 300.363281 774.105469 290.292969 763.277344 283.777344 750.183594 C 274.832031 732.1875 273.425781 711.78125 279.824219 692.722656 C 286.21875 673.664062 299.652344 658.238281 317.648438 649.28125 L 338.523438 638.890625 C 339.113281 638.597656 339.433594 637.949219 339.3125 637.300781 C 339.230469 636.878906 338.972656 636.523438 338.617188 636.316406 C 338.429688 636.207031 338.21875 636.136719 337.992188 636.117188 L 290.699219 632.226562 C 257.175781 629.464844 229.335938 604.460938 223 571.425781 C 216.660156 538.386719 233.273438 504.839844 263.394531 489.851562 L 284.238281 479.476562 C 284.828125 479.183594 285.152344 478.535156 285.027344 477.886719 C 284.902344 477.242188 284.363281 476.757812 283.707031 476.703125 L 236.449219 472.816406 C 202.925781 470.054688 175.085938 445.054688 168.746094 412.011719 C 162.410156 378.972656 179.019531 345.429688 209.140625 330.441406 L 229.980469 320.070312 C 230.570312 319.777344 230.890625 319.125 230.765625 318.480469 C 230.644531 317.835938 230.101562 317.351562 229.449219 317.296875 L 182.203125 313.410156 C 148.675781 310.652344 120.835938 285.652344 114.5 252.605469 C 108.164062 219.566406 124.773438 186.023438 154.898438 171.035156 L 422.097656 38.085938 C 459.246094 19.601562 504.5 34.785156 522.96875 71.9375 C 531.914062 89.929688 533.320312 110.335938 526.921875 129.394531 C 520.519531 148.453125 507.085938 163.878906 489.089844 172.835938 L 468.273438 183.195312 C 467.683594 183.484375 467.359375 184.136719 467.484375 184.785156 C 467.609375 185.429688 468.148438 185.914062 468.804688 185.96875 L 516.03125 189.851562 C 549.554688 192.609375 577.394531 217.609375 583.734375 250.652344 C 590.070312 283.695312 573.460938 317.238281 543.339844 332.226562 L 522.492188 342.601562 C 521.90625 342.894531 521.582031 343.542969 521.707031 344.191406 C 521.832031 344.835938 522.367188 345.324219 523.027344 345.375 L 570.28125 349.261719 C 603.808594 352.019531 631.644531 377.023438 637.984375 410.0625 C 644.320312 443.101562 627.710938 476.648438 597.589844 491.636719 L 576.730469 502.015625 C 576.144531 502.308594 575.820312 502.960938 575.945312 503.605469 C 576.066406 504.253906 576.609375 504.734375 577.265625 504.789062 L 624.539062 508.679688 C 658.0625 511.441406 685.898438 536.441406 692.238281 569.480469 C 698.574219 602.519531 681.964844 636.0625 651.847656 651.054688 L 384.652344 784.03125 C 361.78125 795.414062 334.964844 794.464844 312.917969 781.492188 C 312.917969 781.492188 312.910156 781.488281 312.910156 781.484375 Z M 312.910156 781.484375 " fill-opacity="1" fill-rule="nonzero"/></g></g></g></svg>