<svg xmlns="http://www.w3.org/2000/svg" xmlns:xlink="http://www.w3.org/1999/xlink" width="1080" zoomAndPan="magnify" viewBox="0 0 810 809.999993" height="1080" preserveAspectRatio="xMidYMid meet" version="1.0"><defs><g/></defs><g fill="rgb(100%, 100%, 100%)" fill-opacity="1"><g transform="translate(99.996282, 359.299207)"><g><path d="M 53.695312 -199.925781 L 17.136719 -199.925781 L 17.136719 0 L 265.613281 0 L 265.613281 -36.558594 L 53.695312 -36.558594 Z M 53.695312 -199.925781 "/></g></g></g><g fill="rgb(100%, 100%, 100%)" fill-opacity="1"><g transform="translate(383.032805, 359.299207)"><g><path d="M 174.21875 -199.925781 C 86.253906 -199.925781 17.136719 -155.941406 17.136719 -99.675781 C 17.136719 -43.699219 86.253906 0 174.21875 0 C 262.472656 0 331.589844 -43.699219 331.589844 -99.675781 C 331.589844 -155.941406 262.472656 -199.925781 174.21875 -199.925781 Z M 174.21875 -34.273438 C 117.382812 -34.273438 53.695312 -62.546875 53.695312 -99.675781 C 53.695312 -137.089844 117.382812 -165.367188 174.21875 -165.367188 C 231.34375 -165.367188 294.746094 -137.089844 294.746094 -99.675781 C 294.746094 -62.546875 231.34375 -34.273438 174.21875 -34.273438 Z M 174.21875 -34.273438 "/></g></g></g><g fill="rgb(100%, 100%, 100%)" fill-opacity="1"><g transform="translate(106.957219, 647.299192)"><g><path d="M 119.667969 -199.640625 L 17.136719 -199.640625 L 17.136719 0 L 134.808594 0 C 199.640625 0 290.75 -32.558594 290.75 -104.816406 C 290.75 -174.792969 202.210938 -199.640625 119.667969 -199.640625 Z M 134.808594 -36.84375 L 53.980469 -36.84375 L 53.980469 -162.796875 L 119.667969 -162.796875 C 169.367188 -162.796875 253.90625 -150.515625 253.90625 -104.816406 C 253.90625 -56.835938 176.21875 -36.84375 134.808594 -36.84375 Z M 134.808594 -36.84375 "/></g></g></g><g fill="rgb(100%, 100%, 100%)" fill-opacity="1"><g transform="translate(415.127141, 647.299192)"><g><path d="M 255.90625 -127.667969 L 53.695312 -127.667969 L 53.695312 -199.925781 L 17.136719 -199.925781 L 17.136719 0 L 53.695312 0 L 53.695312 -90.824219 L 255.90625 -90.824219 L 255.90625 0 L 292.746094 0 L 292.746094 -199.925781 L 255.90625 -199.925781 Z M 255.90625 -127.667969 "/></g></g></g></svg>